<svg xmlns="http://www.w3.org/2000/svg" width="59.094" height="20.75" viewBox="0 0 59.094 20.75">
  <metadata><?xpacket begin="﻿" id="W5M0MpCehiHzreSzNTczkc9d"?>
<x:xmpmeta xmlns:x="adobe:ns:meta/" x:xmptk="Adobe XMP Core 5.6-c138 79.159824, 2016/09/14-01:09:01        ">
   <rdf:RDF xmlns:rdf="http://www.w3.org/1999/02/22-rdf-syntax-ns#">
      <rdf:Description rdf:about=""/>
   </rdf:RDF>
</x:xmpmeta>
                                                                                                    
                                                                                                    
                                                                                                    
                                                                                                    
                                                                                                    
                                                                                                    
                                                                                                    
                                                                                                    
                                                                                                    
                                                                                                    
                                                                                                    
                                                                                                    
                                                                                                    
                                                                                                    
                                                                                                    
                                                                                                    
                                                                                                    
                                                                                                    
                                                                                                    
                                                                                                    
                           
<?xpacket end="w"?></metadata>
<defs>
    <style>
      .cls-1 {
        fill: #fff;
        fill-rule: evenodd;
      }
    </style>
  </defs>
  <path id="Voot_logo_copy_2" data-name="Voot logo copy 2" class="cls-1" d="M842.611,152.272a0.968,0.968,0,0,1-.866.633H837.02a0.968,0.968,0,0,1-.866-0.633l-4.639-14.736a0.461,0.461,0,0,1,.466-0.634h3.475a0.938,0.938,0,0,1,.85.639L839.2,147.6c0.1,0.351.268,0.351,0.369,0l2.89-10.059a0.94,0.94,0,0,1,.85-0.639h3.475a0.461,0.461,0,0,1,.466.634Zm5.282-5.84v-3.714c0-3.287,1.548-6.472,7.244-6.472s7.243,3.185,7.243,6.472v3.714c0,3.286-1.547,6.473-7.243,6.473S847.893,149.718,847.893,146.432Zm9.747,0.132v-3.977c0-1.512-.79-2.367-2.5-2.367s-2.5.855-2.5,2.367v3.977c0,1.512.788,2.366,2.5,2.366S857.64,148.076,857.64,146.564Zm6.336-.132v-3.714c0-3.287,1.549-6.472,7.245-6.472s7.243,3.185,7.243,6.472v3.714c0,3.286-1.547,6.473-7.243,6.473S863.976,149.718,863.976,146.432Zm9.748,0.132v-3.977c0-1.512-.792-2.367-2.5-2.367s-2.5.855-2.5,2.367v3.977c0,1.512.792,2.366,2.5,2.366S873.724,148.076,873.724,146.564Zm16.7,5.139-0.315-2.019s-0.054-.23-0.065-0.269a0.717,0.717,0,0,0-.686-0.516c-0.049,0-.23.035-0.259,0.039a7.087,7.087,0,0,1-1.114.091,0.722,0.722,0,0,1-.718-0.282,3.75,3.75,0,0,1-.27-1.27V141.05a0.667,0.667,0,0,1,.666-0.665h2.06a0.724,0.724,0,0,0,.711-0.663l0.171-2.486a0.614,0.614,0,0,0-.62-0.663H887.66a0.667,0.667,0,0,1-.666-0.664v-3.174a0.565,0.565,0,0,0-.66-0.573l-3.423.476a0.788,0.788,0,0,0-.66.755v2.516a0.667,0.667,0,0,1-.666.664h-0.84a0.667,0.667,0,0,0-.666.664v2.484a0.667,0.667,0,0,0,.666.664h0.84a0.667,0.667,0,0,1,.666.665V148.8c0,2.958,1.779,4.106,4.84,4.106a11.043,11.043,0,0,0,2.759-.388,0.053,0.053,0,0,0,.012-0.01,0.717,0.717,0,0,0,.574-0.7,0.577,0.577,0,0,0-.021-0.1Z" transform="translate(-831.5 -132.156)"/>
</svg>
